<?xml version="1.0" encoding="UTF-8"?> <svg xmlns="http://www.w3.org/2000/svg" xmlns:xlink="http://www.w3.org/1999/xlink" version="1.1" id="Layer_1" x="0px" y="0px" viewBox="0 0 251.6 40.4" style="enable-background:new 0 0 251.6 40.4;" xml:space="preserve"> <style type="text/css"> .st0{fill:url(#SVGID_1_);} .st1{fill:url(#SVGID_00000125561576002568048470000005484164479468786616_);} .st2{fill:url(#SVGID_00000142869758418281063410000018256647145640864148_);} .st3{fill:url(#SVGID_00000168088277510752577780000003831572663242945703_);} .st4{fill:url(#SVGID_00000148626474902343046140000014957851263222673289_);} .st5{fill:#004887;} </style> <g> <linearGradient id="SVGID_1_" gradientUnits="userSpaceOnUse" x1="3.5878" y1="9.1726" x2="42.2896" y2="41.4766"> <stop offset="0" style="stop-color:#ED1E79"></stop> <stop offset="0.1857" style="stop-color:#B2287D"></stop> <stop offset="0.7618" style="stop-color:#004887"></stop> <stop offset="0.9944" style="stop-color:#005B97"></stop> </linearGradient> <path class="st0" d="M21.3,16.9L14.5,5.4l-9.1,5.2c-1,0.5-1.5,1.6-1.5,2.7l0,9l8.7,2.9L21.3,16.9z"></path> <linearGradient id="SVGID_00000062169348574547219250000004085074168235240852_" gradientUnits="userSpaceOnUse" x1="11.0988" y1="0.1739" x2="49.8007" y2="32.4779"> <stop offset="0" style="stop-color:#ED1E79"></stop> <stop offset="0.1857" style="stop-color:#B2287D"></stop> <stop offset="0.7618" style="stop-color:#004887"></stop> <stop offset="0.9944" style="stop-color:#005B97"></stop> </linearGradient> <path style="fill:url(#SVGID_00000062169348574547219250000004085074168235240852_);" d="M29.4,9.1l-9.1-5.3c-1-0.5-2.1-0.6-3.1,0 l-1.5,0.9l6.6,11.2L29.4,9.1z"></path> <linearGradient id="SVGID_00000036219763687337123670000003988384354277949847_" gradientUnits="userSpaceOnUse" x1="-3.663" y1="17.8593" x2="35.0389" y2="50.1633"> <stop offset="0" style="stop-color:#ED1E79"></stop> <stop offset="0.1857" style="stop-color:#B2287D"></stop> <stop offset="0.7618" style="stop-color:#004887"></stop> <stop offset="0.9944" style="stop-color:#005B97"></stop> </linearGradient> <path style="fill:url(#SVGID_00000036219763687337123670000003988384354277949847_);" d="M3.9,23.8l0,3.2c0,1.1,0.6,2.1,1.5,2.7 L7,30.5l4.5-4.3L3.9,23.8z"></path> <linearGradient id="SVGID_00000040538293837530324160000004998304558734526088_" gradientUnits="userSpaceOnUse" x1="7.2006" y1="4.8442" x2="45.9025" y2="37.1482"> <stop offset="0" style="stop-color:#ED1E79"></stop> <stop offset="0.1857" style="stop-color:#B2287D"></stop> <stop offset="0.7618" style="stop-color:#004887"></stop> <stop offset="0.9944" style="stop-color:#005B97"></stop> </linearGradient> <path style="fill:url(#SVGID_00000040538293837530324160000004998304558734526088_);" d="M29.9,30.9l2.2-1.3c1-0.5,1.5-1.6,1.5-2.7 l0-13.6c0-1.1-0.6-2.1-1.5-2.7l-1.5-0.9L14.1,25.7L29.9,30.9z"></path> <linearGradient id="SVGID_00000085940585333377214060000004357386565685121715_" gradientUnits="userSpaceOnUse" x1="-1.3791" y1="15.1232" x2="37.3228" y2="47.4272"> <stop offset="0" style="stop-color:#ED1E79"></stop> <stop offset="0.1857" style="stop-color:#B2287D"></stop> <stop offset="0.7618" style="stop-color:#004887"></stop> <stop offset="0.9944" style="stop-color:#005B97"></stop> </linearGradient> <path style="fill:url(#SVGID_00000085940585333377214060000004357386565685121715_);" d="M8.3,31.3l9,5.2c1,0.5,2.1,0.6,3.1,0 l8-4.6L13,26.8L8.3,31.3z"></path> </g> <path class="st5" d="M180.7,27.6l10.5-12.8h-10.1v-3.2h15.1v2.8l-10.4,12.8h11v3.2h-16L180.7,27.6L180.7,27.6z"></path> <path class="st5" d="M206.8,22c0.4,3.7,3.1,5.5,6.2,5.5c2.1,0,4.5-0.8,5.9-2.5h0.4l2.1,1.9v0.4c-2,2.5-5.5,3.5-8.4,3.5 c-5.4,0-10.1-3.8-10.1-9.9c0-5.7,4.1-9.9,9.8-9.9c2.7,0,5.1,0.9,6.7,2.6c1.8,1.6,2.8,4.1,2.8,6.9c0,0.5,0,0.9-0.1,1.3h-15.3V22z M206.8,19.1h11.1c-0.2-1.4-0.7-2.5-1.5-3.3c-0.9-1.1-2.4-1.5-4-1.5C209.4,14.3,207.2,16.1,206.8,19.1z"></path> <path class="st5" d="M246.2,19.1v11.4h-4.1V19.4c0-2.8-1.6-4.7-4.6-4.7c-2.7,0-4.7,1.9-4.7,4.7v11.1h-4.1V11.7h3.7V14 c1.3-1.8,3.4-2.9,6.1-2.9C243.2,11.1,246.2,14.4,246.2,19.1z"></path> <path class="st5" d="M59.1,11.6v16.2c0,5.7-4,8.5-8.9,8.5c-3.6,0-6.7-1.5-8.4-4.1v-0.2l1.2-0.9H43c1.5,2.2,3.9,3.6,7.1,3.6 c4.1,0,7-2.3,7-6.8v-2.7c-1.5,2.1-4.1,3.5-7.1,3.5c-5.1,0-8.9-3.7-8.9-8.6s3.7-8.8,9-8.8c3.2,0,5.6,1.4,7.1,3.5v-3.2h1.8V11.6z M57.3,19.9c0-4-2.9-7-7.1-7s-7.1,3-7.1,7c0,4.1,2.8,7,7.1,7C54.4,26.9,57.3,23.9,57.3,19.9z"></path> <path class="st5" d="M74.8,11.9l-0.6,1.4l-0.1,0.1c-0.6-0.4-1.2-0.5-1.9-0.5c-2.8,0-5,2.8-5,6.7v10.8h-1.9V11.6h1.8v3.2 c1.1-2.2,3-3.6,5.4-3.6c0.8,0,1.6,0.1,2.3,0.5V11.9z"></path> <path class="st5" d="M93.9,18.4v11.9h-1.8v-2.9c-1.5,2.1-4.1,3.4-6.9,3.4c-4.3,0-7.2-2.5-7.2-6c0-3.6,3.2-6.1,7.7-6.1 c2.5,0,4.6,0.7,6.3,1.6v-2.2c0-3.2-2.3-5.3-5.7-5.3c-2.3,0-4.6,0.9-6.3,2.5h-0.2l-0.8-1.2v-0.1c1.8-1.8,4.6-2.8,7.2-2.8 C91.1,11.2,93.9,14,93.9,18.4z M92.1,23.5V22c-1.4-0.8-3.9-1.8-6.3-1.8c-3.5,0-5.8,1.8-5.8,4.4c0,2.5,2.2,4.2,5.4,4.2 C88.7,29,92.1,27,92.1,23.5z"></path> <path class="st5" d="M119.3,21c0,5.5-3.9,9.8-9.5,9.8c-3.4,0-6-1.5-7.6-4v9.1h-1.9V11.6h1.8v3.5c1.6-2.5,4.3-4,7.7-4 C115.4,11.2,119.3,15.5,119.3,21z M117.3,21c0-4.4-3-8.2-7.7-8.2c-4.3,0-7.6,3-7.6,8.2c0,5,3.4,8.2,7.6,8.2 C114.3,29,117.3,25.4,117.3,21z"></path> <path class="st5" d="M141.8,18.8v11.6h-1.9V18.9c0-3.6-2.3-6.1-6-6.1c-3.7,0-6.4,2.6-6.4,6.2v11.3h-1.8V5l1.6-0.2l0.2,0.1v9.6 c1.3-2.1,3.6-3.4,6.7-3.4C138.9,11.2,141.8,14.2,141.8,18.8z"></path> <path class="st5" d="M147.6,6.5c0-0.9,0.8-1.8,1.8-1.8s1.8,0.8,1.8,1.8s-0.8,1.8-1.8,1.8C148.3,8.2,147.6,7.4,147.6,6.5z M148.4,11.6h1.9v18.7h-1.9V11.6z"></path> <path class="st5" d="M156.8,21c0-5.5,4.1-9.8,9.8-9.8c3.3,0,6.1,1.5,7.7,3.6V15l-1.2,0.9H173c-1.5-1.9-3.7-3-6.4-3 c-4.7,0-7.9,3.5-7.9,8.2c0,4.6,3.2,8.1,8.1,8.1c2.5,0,4.8-1.1,6.3-3h0.2l1.2,0.9v0.2c-1.6,2.1-4.4,3.6-7.7,3.6 C160.9,30.8,156.8,26.5,156.8,21z"></path> </svg> 