<?xml version="1.0" encoding="UTF-8"?>
<svg xmlns="http://www.w3.org/2000/svg" width="3026" height="1002" viewBox="0 0 3026 1002">
  <defs>
    <style>
      .circle, .text {
        fill: #e97601;
      }

      .pshape {
        fill: #fff;
      }

      .pshape, .text {
        fill-rule: evenodd;
      }
    </style>
  </defs>
  <circle id="circle" class="circle" cx="500.829" cy="500.89" r="500.391"></circle>
  <path id="p" class="pshape" d="M337.871,228.316H544.522s71.519-1.738,127.42,46.782c0,0,56.2,45.25,64.6,129.749,0,0,12.418,99.389-57.148,169.6,0,0-39.773,50.023-136.655,53.036,0,0,41.142-58.757,33.4-164.731,0,0-5.987-64.581-38.433-104.191,0,0-15.9-29.087-65.018-15.242,0,0-12.083,6.3-17.48-6.918,0,0-10.04-23.259-10.761-25.435,0,0-7.056-1.276-19.851,8.226,0,0,14.373,20.219,18.9,29.09,0,0,5.529,6.957-6.154,16.668,0,0-15.975,12.615-13.148,41.945,0,0,.34,19.221,23.832,46.217,0,0,26.6,35.865,28.593,38.3,0,0,27.251,31.978,34.843,90.516v226.61H338.237V228.282"></path>
  <path id="MEDIA" class="text" d="M1323.05,729.5H1353V555.335h-42.24L1264.17,672.58l-46.34-117.245h-42.24V729.5h29.96V597.637L1257.77,729.5h12.8l52.48-131.867V729.5Zm95.49,0h116.99V702.609h-87.04V654.3h85.25v-26.9h-85.25V582.231h87.04v-26.9H1418.54V729.5Zm176.89,0h63.49c53.25,0,89.34-35.773,89.34-86.954s-36.09-87.215-89.34-87.215h-63.49V729.5Zm29.96-26.895V582.231h33.53c38.14,0,58.62,26.634,58.62,60.319,0,32.9-21.5,60.059-58.62,60.059h-33.53ZM1806.38,729.5h29.95V555.335h-29.95V729.5Zm216.32,0h32.76l-67.07-174.169h-37.37L1883.95,729.5h32.76l12.55-33.423h80.89Zm-53-148.318,32,88h-63.99Z"></path>
  <path id="PEPPERSHOCK" class="text" d="M1224.84,466.5v-99.37h21.06c50.7,0,73.32-40.154,73.32-85.58s-22.62-85.581-73.32-85.581h-70.2V466.5h49.14Zm44.46-184.95c0,24.335-10.14,40.559-28.47,40.559h-15.99V240.994h15.99C1259.16,240.994,1269.3,256.812,1269.3,281.554ZM1461.57,466.5v-45.02h-64.74V351.316h62.01V306.3h-62.01v-65.3h64.74V195.973H1347.69V466.5h113.88Zm82.68,0v-99.37h21.06c50.7,0,73.32-40.154,73.32-85.58s-22.62-85.581-73.32-85.581h-70.2V466.5h49.14Zm44.46-184.95c0,24.335-10.14,40.559-28.47,40.559h-15.99V240.994h15.99C1578.57,240.994,1588.71,256.812,1588.71,281.554ZM1716.24,466.5v-99.37h21.06c50.7,0,73.32-40.154,73.32-85.58s-22.62-85.581-73.32-85.581h-70.2V466.5h49.14Zm44.46-184.95c0,24.335-10.14,40.559-28.47,40.559h-15.99V240.994h15.99C1750.56,240.994,1760.7,256.812,1760.7,281.554ZM1952.97,466.5v-45.02h-64.74V351.316h62.01V306.3h-62.01v-65.3h64.74V195.973H1839.09V466.5h113.88Zm179.4,0-35.88-111.943c14.82-8.112,33.54-28.8,33.54-74.63,0-49.482-29.64-83.958-70.98-83.958h-72.54V466.5h49.14v-99.37h15.99l28.08,99.37h52.65Zm-52.26-184.95c0,24.335-10.14,40.559-28.47,40.559h-15.99V240.994h15.99C2069.97,240.994,2080.11,256.812,2080.11,281.554Zm70.2,163.048c16.77,17.441,38.61,26.77,67.08,26.77,44.46,0,72.93-32.854,72.93-78.28,0-47.049-27.69-68.545-51.48-86.392-16.77-12.979-31.2-24.741-31.2-42.587,0-16.224,10.14-27.175,24.57-27.175,13.26,0,25.35,4.867,35.49,15.818l19.11-39.342c-14.43-14.2-34.71-21.9-56.55-21.9-46.02,0-72.54,34.881-72.54,75.44,0,47.049,26.91,66.518,49.92,83.553,17.55,13.384,32.76,24.741,32.76,45.832,0,17.44-10.92,29.608-26.52,29.608a53.732,53.732,0,0,1-42.12-21.5Zm318.24,21.9V195.973h-49.14v109.1h-49.92v-109.1h-49.14V466.5h49.14V349.693h49.92V466.5h49.14Zm32.37-135.062c0,79.5,23.79,139.93,81.12,139.93,56.94,0,81.12-60.434,81.12-139.93s-24.18-139.93-81.12-139.93C2524.71,191.512,2500.92,251.945,2500.92,331.442Zm111.93,0c0,53.132-7.8,94.5-30.81,94.5s-30.81-41.371-30.81-94.5c0-53.944,7.8-94.5,30.81-94.5S2612.85,277.5,2612.85,331.442Zm156,139.93c43.29,0,58.5-38.937,65.91-69.763L2795.37,386.6c-3.51,22.308-10.53,39.343-26.52,39.343-23.4,0-31.2-39.343-31.2-94.5s7.8-94.5,31.2-94.5c14.43,0,20.67,12.574,26.13,33.259l39-15.007c-8.19-28.8-23.01-63.678-65.13-63.678-56.94,0-81.51,59.217-81.51,139.93C2687.34,411.749,2711.91,471.372,2768.85,471.372Zm256.23-4.868L2956.83,323.33l63.57-127.357h-53.82L2911.98,320.9V195.973h-49.14V466.5h49.14v-68.95l16.38-34.07,40.95,103.02h55.77Z"></path>
</svg>
